<svg width="120" height="120" viewBox="0 0 120 120" fill="none" xmlns="http://www.w3.org/2000/svg">
<rect width="120" height="120" rx="20" fill="#040410"/>
<path d="M95 79.5265C92.4537 80.174 90.8787 79.5549 89.4656 77.433L79.4162 63.5293L77.9637 61.6043L66.2278 77.479C64.8869 79.3887 63.4803 80.2199 60.9778 79.544L76.0059 59.3709L62.0147 41.149C64.4209 40.6809 66.0834 40.9193 67.56 43.074L77.9834 57.1506L88.4834 43.1506C89.8287 41.2409 91.2747 40.5146 93.6897 41.219L88.2647 48.4115L80.9147 57.9818C80.0397 59.0756 80.16 59.8237 80.965 60.8802L95 79.5265ZM25.0175 59.034L26.2469 52.9877C29.5937 41.0221 43.3094 36.0499 52.7681 43.4437C58.2959 47.7924 59.6697 53.9437 59.3962 60.8343H28.2375C27.7694 73.2374 36.6966 80.7231 48.0781 76.9037C52.0703 75.5627 54.4219 72.4368 55.5987 68.5256C56.1959 66.5656 57.1847 66.2593 59.0266 66.8193C58.0859 71.7106 55.9641 75.7968 51.4797 78.354C44.7794 82.1821 35.2156 80.944 30.1844 75.624C27.1875 72.5374 25.9494 68.6262 25.3938 64.4437C25.3063 63.7524 25.1312 63.094 25 62.4312C25.0117 61.2995 25.0175 60.1678 25.0175 59.0362V59.034ZM28.2944 58.2027H56.4519C56.2681 49.234 50.6834 42.864 43.0512 42.8093C34.6731 42.7437 28.6575 48.9627 28.2944 58.2027Z" fill="#FCFBFE"/>
</svg>
