<svg width="120" height="120" viewBox="0 0 120 120" fill="none" xmlns="http://www.w3.org/2000/svg">
<rect width="120" height="120" rx="20" fill="#F7DF1E"/>
<path d="M81.3835 92.7815C83.523 96.2748 86.3066 98.8425 91.2296 98.8425C95.3653 98.8425 98.0072 96.7755 98.0072 93.9195C98.0072 90.497 95.2928 89.2848 90.7407 87.2936L88.2454 86.2231C81.0429 83.1546 76.2581 79.3106 76.2581 71.1842C76.2581 63.6986 81.9618 58 90.8755 58C97.2216 58 101.784 60.2086 105.071 65.9915L97.2991 70.9819C95.5878 67.9135 93.7417 66.7046 90.8755 66.7046C87.9521 66.7046 86.0992 68.5592 86.0992 70.9819C86.0992 73.9762 87.9538 75.1884 92.2361 77.043L94.7314 78.1119C103.212 81.7485 108 85.4559 108 93.7913C108 102.778 100.941 107.701 91.4606 107.701C82.1911 107.701 76.2025 103.283 73.2723 97.4937L81.3835 92.7815ZM46.1247 93.6464C47.6927 96.4282 49.119 98.7801 52.5483 98.7801C55.8275 98.7801 57.8962 97.4971 57.8962 92.5083V58.5699H67.8772V92.6432C67.8772 102.978 61.8178 107.682 52.9731 107.682C44.9816 107.682 40.3536 103.546 38 98.5652L46.1247 93.6464Z" fill="black"/>
</svg>
