<svg width="120" height="120" viewBox="0 0 120 120" fill="none" xmlns="http://www.w3.org/2000/svg">
<rect width="120" height="120" rx="20" fill="white"/>
<g clip-path="url(#clip0_2116_3897)">
<path d="M57.7077 25.3079C57.5572 25.3216 57.0782 25.3695 56.6471 25.4037C46.7048 26.2999 37.392 31.6638 31.4936 39.9079C28.2092 44.4918 26.1085 49.6914 25.3148 55.1989C25.0342 57.1214 25 57.6893 25 60.2959C25 62.9026 25.0342 63.4704 25.3148 65.3929C27.217 78.5357 36.5709 89.578 49.2571 93.6693C51.5288 94.4014 53.9238 94.9008 56.6471 95.2018C57.7077 95.3181 62.2923 95.3181 63.3529 95.2018C68.0538 94.6819 72.0362 93.5188 75.9638 91.5142C76.566 91.2063 76.6823 91.1242 76.6002 91.0558C76.5455 91.0148 73.9795 87.5734 70.9003 83.4137L65.303 75.8537L58.2893 65.475C54.4301 59.7691 51.2551 55.1031 51.2278 55.1031C51.2004 55.0963 51.173 59.7075 51.1593 65.3382C51.1388 75.197 51.132 75.5938 51.0088 75.8264C50.8309 76.1616 50.694 76.2985 50.4066 76.449C50.1877 76.5584 49.9961 76.579 48.9629 76.579H47.7791L47.4643 76.3806C47.259 76.2506 47.1085 76.0795 47.0059 75.8811L46.8622 75.5732L46.8759 61.8558L46.8964 48.1315L47.1085 47.8647C47.218 47.721 47.4506 47.5363 47.6149 47.4474C47.8954 47.3105 48.0049 47.2968 49.1887 47.2968C50.5846 47.2968 50.8172 47.3516 51.1799 47.7484C51.2825 47.8579 55.0802 53.5774 59.6237 60.467C64.1672 67.3565 70.3803 76.7637 73.4321 81.3818L78.9746 89.7764L79.2551 89.5917C81.739 87.9771 84.3666 85.6783 86.4467 83.2837C90.8739 78.2004 93.7273 72.0019 94.6852 65.3929C94.9658 63.4704 95 62.9026 95 60.2959C95 57.6893 94.9658 57.1214 94.6852 55.1989C92.783 42.0562 83.4291 31.0138 70.7429 26.9225C68.5054 26.1973 66.1241 25.6979 63.4555 25.3968C62.7986 25.3284 58.2757 25.2532 57.7077 25.3079ZM72.0362 46.4759C72.3646 46.6401 72.6315 46.9548 72.7273 47.2832C72.782 47.461 72.7957 51.265 72.782 59.8375L72.7615 72.1387L70.5924 68.8137L68.4164 65.4887V56.5467C68.4164 50.7655 68.4438 47.5158 68.4848 47.3584C68.5943 46.9753 68.8338 46.6743 69.1623 46.4964C69.4428 46.3527 69.5455 46.339 70.6197 46.339C71.6325 46.339 71.8104 46.3527 72.0362 46.4759Z" fill="black"/>
</g>
<defs>
<clipPath id="clip0_2116_3897">
<rect width="70" height="70" fill="white" transform="translate(25 25.2891)"/>
</clipPath>
</defs>
</svg>
