<svg width="120" height="120" viewBox="0 0 120 120" fill="none" xmlns="http://www.w3.org/2000/svg">
<rect width="120" height="120" rx="20" fill="#8CC84B"/>
<g clip-path="url(#clip0_2116_3890)">
<path d="M56.8397 22.2601C58.743 21.1789 61.222 21.174 63.1236 22.2601C72.6905 27.6253 82.2603 32.982 91.8255 38.3504C93.6246 39.3562 94.8281 41.3434 94.8097 43.4009V75.6797C94.8231 77.8223 93.5008 79.857 91.6027 80.84C82.0673 86.1756 72.5368 91.5177 63.0031 96.8533C61.0604 97.9557 58.5317 97.8707 56.6498 96.678C53.791 95.0332 50.9274 93.3966 48.0684 91.7535C47.4842 91.4078 46.8256 91.1327 46.4131 90.5705C46.7778 90.0827 47.4298 90.0219 47.9596 89.8089C49.1529 89.4323 50.2489 88.8278 51.3451 88.2412C51.6223 88.0529 51.9608 88.1251 52.2265 88.2935C54.671 89.6846 57.094 91.1161 59.5467 92.4939C60.07 92.7937 60.5998 92.3957 61.047 92.1482C70.4042 86.8995 79.7729 81.6705 89.1284 76.4201C89.475 76.2546 89.6667 75.8894 89.6385 75.5126C89.6451 64.8645 89.6402 54.2145 89.6418 43.5664C89.6814 43.1388 89.4321 42.7456 89.0426 42.5706C79.5402 37.2595 70.0428 31.9402 60.5421 26.6276C60.3775 26.5153 60.1825 26.4551 59.9828 26.4548C59.783 26.4545 59.5878 26.5142 59.4229 26.626C49.9222 31.9402 40.4264 37.2643 30.9257 42.5752C30.5375 42.7505 30.277 43.1371 30.3232 43.5664C30.3248 54.2145 30.3232 64.8645 30.3232 75.5142C30.3067 75.6981 30.3474 75.8826 30.4398 76.0428C30.5322 76.203 30.6718 76.3313 30.8399 76.4104C33.3752 77.8373 35.9138 79.2541 38.4507 80.6761C39.8799 81.4396 41.6347 81.8933 43.2094 81.3083C44.599 80.8137 45.573 79.4063 45.5465 77.942C45.5596 67.356 45.54 56.7684 45.5564 46.1841C45.5216 45.7142 45.9708 45.3259 46.4312 45.3701C47.6493 45.362 48.8691 45.3539 50.0873 45.3734C50.5958 45.362 50.9457 45.868 50.8828 46.3415C50.8779 56.9945 50.896 67.6477 50.8746 78.3007C50.8779 81.1398 49.7027 84.2291 47.0567 85.6183C43.7969 87.2943 39.7679 86.9388 36.5475 85.3318C33.7596 83.9507 31.099 82.3209 28.3606 80.8414C26.4576 79.8638 25.1419 77.821 25.1553 75.68V43.4009C25.1353 41.3008 26.3866 39.2776 28.2417 38.2864C37.7755 32.9465 47.3076 27.6025 56.8397 22.2601Z" fill="#FCFBFE"/>
<path d="M65.1554 44.6185C69.3135 44.3529 73.7649 44.4612 77.5067 46.4942C80.4036 48.0521 82.0097 51.3218 82.0609 54.5161C81.9799 54.947 81.5261 55.1847 81.1117 55.1551C79.9053 55.1535 78.6986 55.1714 77.4922 55.147C76.9804 55.1665 76.683 54.6982 76.6187 54.2492C76.2721 52.7208 75.4323 51.2071 73.9828 50.4699C71.7578 49.3642 69.1779 49.4199 66.7517 49.4429C64.9805 49.5363 63.0759 49.6885 61.5753 50.7222C60.4233 51.5053 60.0734 53.086 60.4845 54.359C60.8722 55.2731 61.9353 55.5681 62.8052 55.8399C67.8162 57.1407 73.1263 57.0112 78.0417 58.723C80.0767 59.4209 82.0674 60.7775 82.764 62.8922C83.6752 65.7264 83.2757 69.1142 81.244 71.3895C79.5964 73.2619 77.1966 74.281 74.8032 74.8345C71.6192 75.5391 68.3149 75.557 65.0814 75.2442C62.0409 74.9001 58.8768 74.1073 56.5296 72.0512C54.5224 70.3216 53.5421 67.6265 53.6394 65.0253C53.6626 64.586 54.1033 64.2797 54.5273 64.3158C55.7422 64.306 56.9571 64.3028 58.172 64.3174C58.6573 64.283 59.017 64.6992 59.0419 65.1531C59.2661 66.6093 59.8175 68.1377 61.0969 69.001C63.566 70.582 66.6642 70.4738 69.4915 70.518C71.8338 70.4149 74.4631 70.3837 76.3746 68.8472C77.3831 67.9708 77.6819 66.5046 77.4093 65.2432C77.1141 64.1782 75.9916 63.682 75.0277 63.3575C70.0809 61.8044 64.7115 62.368 59.8126 60.6117C57.8237 59.9141 55.9005 58.5952 55.1364 56.5673C54.0703 53.6973 54.5588 50.1473 56.8035 47.9487C58.9921 45.7619 62.1516 44.92 65.1554 44.6185Z" fill="#FCFBFE"/>
</g>
<defs>
<clipPath id="clip0_2116_3890">
<rect width="70" height="76.5133" fill="white" transform="translate(25 21.2891)"/>
</clipPath>
</defs>
</svg>
