<svg width="120" height="120" viewBox="0 0 120 120" fill="none" xmlns="http://www.w3.org/2000/svg">
<rect width="120" height="120" rx="20" fill="#040410"/>
<path d="M59.9951 66.5155C63.5975 66.5155 66.5179 63.5951 66.5179 59.9927C66.5179 56.3903 63.5975 53.47 59.9951 53.47C56.3927 53.47 53.4724 56.3903 53.4724 59.9927C53.4724 63.5951 56.3927 66.5155 59.9951 66.5155Z" fill="#61DAFB"/>
<path d="M60 73.3561C79.33 73.3561 95 67.373 95 59.9925C95 52.612 79.33 46.6289 60 46.6289C40.67 46.6289 25 52.612 25 59.9925C25 67.373 40.67 73.3561 60 73.3561Z" stroke="#61DAFB" stroke-width="3.94608"/>
<path d="M48.418 66.6744C58.083 83.4146 71.0995 93.9937 77.4912 90.3035C83.8829 86.6132 81.2294 70.051 71.5645 53.3108C61.8995 36.5706 48.8829 25.9915 42.4912 29.6818C36.0995 33.3721 38.753 49.9342 48.418 66.6744Z" stroke="#61DAFB" stroke-width="3.94608"/>
<path d="M48.4304 53.3115C38.7654 70.0517 36.1119 86.6139 42.5037 90.3041C48.8954 93.9944 61.9119 83.4153 71.5769 66.6751C81.2419 49.9349 83.8954 33.3727 77.5037 29.6825C71.1119 25.9922 58.0954 36.5713 48.4304 53.3115Z" stroke="#61DAFB" stroke-width="3.94608"/>
</svg>
