<svg width="120" height="120" viewBox="0 0 120 120" fill="none" xmlns="http://www.w3.org/2000/svg">
<rect width="120" height="120" rx="20" fill="#3178C6"/>
<path fill-rule="evenodd" clip-rule="evenodd" d="M77.1067 93.6329V103.656C78.725 104.491 80.6391 105.118 82.8488 105.535C85.0586 105.953 87.3875 106.162 89.8359 106.162C92.2221 106.162 94.4887 105.932 96.6362 105.473C98.7838 105.013 100.667 104.256 102.285 103.202C103.904 102.147 105.185 100.769 106.129 99.0673C107.073 97.3654 107.545 95.2617 107.545 92.756C107.545 90.9392 107.275 89.347 106.736 87.9793C106.196 86.6116 105.418 85.3953 104.401 84.3303C103.385 83.2654 102.166 82.3099 100.745 81.4642C99.3233 80.6185 97.7205 79.8198 95.9361 79.0682C94.6289 78.5252 93.4566 77.998 92.4191 77.4864C91.3817 76.9747 90.4999 76.4527 89.7737 75.9203C89.0474 75.3877 88.4872 74.8239 88.0931 74.2289C87.6989 73.6336 87.5017 72.9603 87.5017 72.2084C87.5017 71.5195 87.678 70.8982 88.0308 70.3448C88.3836 69.7914 88.8816 69.3165 89.5247 68.9196C90.168 68.523 90.9563 68.2149 91.89 67.9956C92.8238 67.7764 93.8611 67.6669 95.0024 67.6669C95.8322 67.6669 96.7088 67.7295 97.6322 67.8547C98.5555 67.98 99.484 68.1732 100.418 68.4341C101.352 68.6952 102.259 69.0241 103.141 69.4208C104.023 69.8176 104.837 70.2769 105.584 70.7991V61.4336C104.07 60.849 102.415 60.4157 100.62 60.1338C98.8254 59.8519 96.7659 59.7109 94.4422 59.7109C92.0767 59.7109 89.8359 59.9668 87.7196 60.4784C85.6033 60.9899 83.7411 61.7886 82.1329 62.8744C80.5249 63.9604 79.2542 65.3437 78.3205 67.0248C77.3868 68.7056 76.9199 70.7154 76.9199 73.0542C76.9199 76.0402 77.7758 78.5878 79.4876 80.6969C81.1993 82.8059 83.798 84.5912 87.2839 86.053C88.6533 86.6168 89.9294 87.17 91.112 87.713C92.2947 88.256 93.3166 88.8198 94.1775 89.4045C95.0386 89.9891 95.7181 90.626 96.2163 91.3152C96.7142 92.0041 96.9632 92.7872 96.9632 93.6644C96.9632 94.3117 96.8075 94.9119 96.4963 95.4653C96.185 96.0187 95.7129 96.4989 95.0801 96.9061C94.4474 97.3134 93.6589 97.6317 92.7149 97.8614C91.7707 98.0912 90.666 98.2059 89.4002 98.2059C87.2423 98.2059 85.1053 97.8249 82.9888 97.0627C80.8725 96.3007 78.9117 95.1574 77.1067 93.6329ZM60.3705 68.9375H73.1415V60.712H37.5449V68.9375H50.2535V105.561H60.3705V68.9375Z" fill="white"/>
</svg>
